
        <svg xmlns="http://www.w3.org/2000/svg" xmlns:xlink="http://www.w3.org/1999/xlink" version="1.1" width="3168.5393258426966" height="1044.9438202247193" viewBox="0 0 3168.5393258426966 1044.9438202247193">
			
			<g transform="scale(8.426966292134832) translate(10, 10)">
				<defs id="SvgjsDefs4346"><linearGradient id="SvgjsLinearGradient4353"><stop id="SvgjsStop4354" stop-color="#834f2a" offset="0"/><stop id="SvgjsStop4355" stop-color="#dba173" offset="0.5"/><stop id="SvgjsStop4356" stop-color=" #834F2A" offset="1"/></linearGradient><linearGradient id="SvgjsLinearGradient4357"><stop id="SvgjsStop4358" stop-color="#834f2a" offset="0"/><stop id="SvgjsStop4359" stop-color="#dba173" offset="0.5"/><stop id="SvgjsStop4360" stop-color=" #834F2A" offset="1"/></linearGradient><linearGradient id="SvgjsLinearGradient4361"><stop id="SvgjsStop4362" stop-color="#834f2a" offset="0"/><stop id="SvgjsStop4363" stop-color="#dba173" offset="0.5"/><stop id="SvgjsStop4364" stop-color=" #834F2A" offset="1"/></linearGradient></defs><g id="SvgjsG4347" featureKey="symbolFeature-0" transform="matrix(1.0851637274883914,0,0,1.0851637274883914,-4.25818249357166,-2.18582447754887)" fill="#000"><g xmlns="http://www.w3.org/2000/svg"><path d="M96.076,39.194l-16.95,16.953l-0.484,0.216l-21.468,9.639l9.862-21.949l4.26-4.261l14.2-14.199   c0.398,0.368,0.797,0.747,1.188,1.134L72.494,40.91l5.882-0.49l-2.451,6.217l-0.401,1.018l0.739-0.292l6.492-2.561l-0.488,5.882   L95.24,37.712C95.53,38.198,95.807,38.693,96.076,39.194z M80.473,52.479l0.43-5.184l-4.012,1.581l-4.274,1.688l2.297-5.832   l0.973-2.458l-2.426,0.201l-2.76,0.231l-2.293,2.292l-4.099,9.123l4.748,4.747l9.122-4.098l0.229-0.229L80.473,52.479z"/><path d="M78.771,58.939c0,0.06,0,0.124,0,0.185c0,15.862-12.862,28.725-28.725,28.725c-15.866,0-28.725-12.862-28.725-28.725V59.06   l26.119,11.73L34.805,42.665l-4.453-4.454c2.49-2.347,5.397-4.251,8.609-5.595v9.352L49.91,70.79l10.957-28.822v-9.463   c3.251,1.324,6.208,3.226,8.738,5.577l-4.583,4.583L52.387,70.79L78.771,58.939z"/><path d="M58.466,12.392v29.137L49.91,64.02l-8.545-22.491V12.435c0.538-0.091,1.088-0.174,1.641-0.246v23.257l3.811-4.506   l3.094,7.129l3.101-7.129l3.812,4.509V12.151C57.375,12.223,57.92,12.302,58.466,12.392z M56.822,41.227v-3.244l-3.362-3.971   l-3.55,8.171l-3.549-8.171l-3.355,3.971v3.244l3.549,9.345h6.715L56.822,41.227z"/><path d="M32.788,44.053l9.862,21.949l-21.21-9.526l-0.739-0.328L3.924,39.368c0.266-0.499,0.542-0.998,0.829-1.489l12.809,12.805   l-0.492-5.882l6.719,2.652l0.513,0.201l-0.276-0.71l-2.577-6.524l5.886,0.49L13.276,26.854c0.388-0.382,0.782-0.763,1.181-1.138   l14.215,14.215L32.788,44.053z M35.512,54.122l-4.091-9.123l-2.293-2.292l-2.513-0.21l-2.67-0.222l1.073,2.732l2.196,5.558   l-4.048-1.595l-4.242-1.674l0.431,5.184l2.29,2.292l9.126,4.098L35.512,54.122z"/></g></g><g id="SvgjsG4348" featureKey="textGroupContainer" transform="matrix(1,0,0,1,355,0)" fill="#000"><rect xmlns="http://www.w3.org/2000/svg" y="0" height="1" width="1" opacity="0"/><rect xmlns="http://www.w3.org/2000/svg" y="0" x="-235" width="3" height="104"/></g><g id="SvgjsG4349" featureKey="nameFeature-0" transform="matrix(1.3287799802232056,0,0,1.3287799802232056,138.00000063361168,10.851908732344791)" fill="#000"><path d="M1.16 38.8 l4.72 0 l0 1.2 l-5.88 0 l0 -28.6 l1.16 0 l0 27.4 z M12.673 29.8 c-2.48 0 -4.52 2 -4.52 4.52 c0 2.48 2.04 4.48 4.52 4.48 s4.52 -2 4.52 -4.48 c0 -2.52 -2.04 -4.52 -4.52 -4.52 z M12.673 28.64 c3.12 0 5.68 2.52 5.68 5.68 c0 3.12 -2.56 5.68 -5.68 5.68 c-3.16 0 -5.68 -2.56 -5.68 -5.68 c0 -3.16 2.52 -5.68 5.68 -5.68 z M15.633000000000001 25.439999999999998 l-5.48 1.76 l-0.36 -1.12 l5.48 -1.76 z M29.666 28.64 l1.16 0 l0 5.68 c0 2.24 -1.32 4.16 -3.16 5.08 c0.52 0.28 1.04 0.64 1.48 1.08 c2.24 2.2 2.24 5.8 0 8.04 c-2.2 2.2 -5.8 2.2 -8.04 0 l0.84 -0.84 c1.76 1.76 4.64 1.76 6.4 0 s1.76 -4.6 0 -6.36 s-4.64 -1.76 -6.4 0 l-0.84 -0.84 c0.48 -0.44 1 -0.8 1.52 -1.08 c-1.88 -0.92 -3.16 -2.88 -3.16 -5.08 c0 -3.16 2.52 -5.68 5.68 -5.68 c1.84 0 3.48 0.84 4.52 2.2 l0 -2.2 z M25.146 38.8 c2.48 0 4.52 -2 4.52 -4.48 c0 -2.52 -2.04 -4.52 -4.52 -4.52 s-4.52 2 -4.52 4.52 c0 2.48 2.04 4.48 4.52 4.48 z M32.539 40 l0 -11.36 l1.16 0 l0 11.36 l-1.16 0 z M33.099 24 c0.68 0 1.2 0.52 1.2 1.16 s-0.52 1.16 -1.2 1.16 c-0.64 0 -1.16 -0.52 -1.16 -1.16 s0.52 -1.16 1.16 -1.16 z M44.332 37.48 l0.8 0.84 c-2.2 2.2 -5.8 2.2 -8.04 0 c-2.2 -2.2 -2.2 -5.8 0 -8.04 c2.24 -2.2 5.84 -2.2 8.04 0 l-0.8 0.84 c-1.76 -1.76 -4.64 -1.76 -6.4 0 s-1.76 4.6 0 6.36 s4.64 1.76 6.4 0 z M55.644999999999996 28.64 l1.16 0 l0 11.36 l-1.16 0 l0 -2.24 c-1.04 1.36 -2.68 2.24 -4.52 2.24 c-3.16 0 -5.68 -2.56 -5.68 -5.68 c0 -3.16 2.52 -5.68 5.68 -5.68 c1.84 0 3.48 0.84 4.52 2.2 l0 -2.2 z M51.125 38.8 c2.48 0 4.52 -2 4.52 -4.48 c0 -2.52 -2.04 -4.52 -4.52 -4.52 s-4.52 2 -4.52 4.52 c0 2.48 2.04 4.48 4.52 4.48 z M59.838 40.12 l0 -1.16 c1.08 0 1.92 -0.84 1.92 -1.92 c0 -1.16 -0.88 -2 -1.84 -2.92 c-1 -0.96 -2 -1.92 -2 -3.28 c0 -1.32 1.04 -2.36 2.36 -2.36 l0 1.16 c-0.68 0 -1.2 0.52 -1.2 1.2 c0 0.88 0.8 1.64 1.64 2.44 c1.04 1 2.2 2.12 2.2 3.76 c0 1.72 -1.36 3.08 -3.08 3.08 z M75.424 20.88 c4.08 1.16 7.04 4.92 7.04 9.36 c0 5.4 -4.36 9.76 -9.76 9.76 l-1.16 0 l0 -28.6 l1.16 0 c2.84 0 5.12 2.28 5.12 5.12 c0 1.84 -0.96 3.44 -2.4 4.36 z M72.70400000000001 12.559999999999999 l0 7.92 c2.2 0 3.96 -1.76 3.96 -3.96 s-1.76 -3.96 -3.96 -3.96 z M72.70400000000001 38.84 c4.76 0 8.6 -3.88 8.6 -8.6 c0 -4.76 -3.84 -8.6 -8.6 -8.6 l0 17.2 l0 0 z M89.257 28.64 l0 1.16 c-2.48 0 -4.52 2 -4.52 4.52 l0 5.68 l-1.16 0 l0 -11.36 l1.16 0 l0 2.2 c1.04 -1.36 2.68 -2.2 4.52 -2.2 z M98.97000000000003 28.64 l1.16 0 l0 11.36 l-1.16 0 l0 -2.24 c-1.04 1.36 -2.68 2.24 -4.52 2.24 c-3.16 0 -5.68 -2.56 -5.68 -5.68 c0 -3.16 2.52 -5.68 5.68 -5.68 c1.84 0 3.48 0.84 4.52 2.2 l0 -2.2 z M94.45000000000002 38.8 c2.48 0 4.52 -2 4.52 -4.48 c0 -2.52 -2.04 -4.52 -4.52 -4.52 s-4.52 2 -4.52 4.52 c0 2.48 2.04 4.48 4.52 4.48 z M103.16300000000003 40.12 l0 -1.16 c1.08 0 1.92 -0.84 1.92 -1.92 c0 -1.16 -0.88 -2 -1.84 -2.92 c-1 -0.96 -2 -1.92 -2 -3.28 c0 -1.32 1.04 -2.36 2.36 -2.36 l0 1.16 c-0.68 0 -1.2 0.52 -1.2 1.2 c0 0.88 0.8 1.64 1.64 2.44 c1.04 1 2.2 2.12 2.2 3.76 c0 1.72 -1.36 3.08 -3.08 3.08 z M107.95600000000002 40 l0 -11.36 l1.16 0 l0 11.36 l-1.16 0 z M108.51600000000002 24 c0.68 0 1.2 0.52 1.2 1.16 s-0.52 1.16 -1.2 1.16 c-0.64 0 -1.16 -0.52 -1.16 -1.16 s0.52 -1.16 1.16 -1.16 z M110.82900000000002 40 l0 -28.6 l1.16 0 l0 28.6 l-1.16 0 z M116.06200000000001 37.88 c1.76 1.36 4.32 1.24 5.96 -0.4 l0.8 0.84 c-2.2 2.2 -5.8 2.2 -8.04 0 c-2.2 -2.2 -2.2 -5.8 0 -8.04 c2.08 -2.08 5.4 -2.2 7.6 -0.4 l0.04 0 c0.4 0.4 0.4 0.4 0.84 0.8 z M115.62200000000001 31.119999999999997 c-1.6 1.6 -1.76 4.16 -0.4 5.92 l6.36 -6.32 c-1.76 -1.36 -4.32 -1.24 -5.96 0.4 z M124.97500000000001 40 l0 -11.36 l1.16 0 l0 11.36 l-1.16 0 z M125.53500000000001 24 c0.68 0 1.2 0.52 1.2 1.16 s-0.52 1.16 -1.2 1.16 c-0.64 0 -1.16 -0.52 -1.16 -1.16 s0.52 -1.16 1.16 -1.16 z M133.52800000000002 28.64 l0 1.16 c-2.48 0 -4.52 2 -4.52 4.52 l0 5.68 l-1.16 0 l0 -11.36 l1.16 0 l0 2.2 c1.04 -1.36 2.68 -2.2 4.52 -2.2 z M143.241 28.64 l1.16 0 l0 11.36 l-1.16 0 l0 -2.24 c-1.04 1.36 -2.68 2.24 -4.52 2.24 c-3.16 0 -5.68 -2.56 -5.68 -5.68 c0 -3.16 2.52 -5.68 5.68 -5.68 c1.84 0 3.48 0.84 4.52 2.2 l0 -2.2 z M138.72100000000003 38.8 c2.48 0 4.52 -2 4.52 -4.48 c0 -2.52 -2.04 -4.52 -4.52 -4.52 s-4.52 2 -4.52 4.52 c0 2.48 2.04 4.48 4.52 4.48 z M147.43400000000003 40.12 l0 -1.16 c1.08 0 1.92 -0.84 1.92 -1.92 c0 -1.16 -0.88 -2 -1.84 -2.92 c-1 -0.96 -2 -1.92 -2 -3.28 c0 -1.32 1.04 -2.36 2.36 -2.36 l0 1.16 c-0.68 0 -1.2 0.52 -1.2 1.2 c0 0.88 0.8 1.64 1.64 2.44 c1.04 1 2.2 2.12 2.2 3.76 c0 1.72 -1.36 3.08 -3.08 3.08 z"/></g>
			</g>
		</svg>
	