<svg width="3169" height="1045" viewBox="0 0 3169 1045" fill="none" xmlns="http://www.w3.org/2000/svg">
<path d="M926.967 424.263L771.966 579.292L767.54 581.267L571.223 669.412L661.407 468.697L700.363 429.731L830.217 299.887C833.857 303.252 837.505 306.718 841.081 310.257L711.319 439.955L765.107 435.474L742.694 492.326L739.027 501.636L745.785 498.965L805.152 475.546L800.689 529.335L919.322 410.711C921.974 415.155 924.507 419.681 926.967 424.263ZM784.284 545.749L788.216 498.344L751.527 512.801L712.443 528.237L733.449 474.906L742.346 452.428L720.161 454.266L694.922 456.379L673.953 477.338L636.47 560.765L679.888 604.175L763.306 566.7L765.4 564.606L784.284 545.749Z" fill="#007481"/>
<path d="M768.719 604.827C768.719 605.376 768.719 605.961 768.719 606.519C768.719 751.571 651.101 869.199 506.039 869.199C360.95 869.199 243.359 751.58 243.359 606.519V605.934L482.208 713.2L366.666 456.007L325.945 415.277C348.715 393.814 375.298 376.403 404.671 364.113V449.633L504.795 713.2L604.993 449.633V363.098C634.722 375.205 661.763 392.598 684.899 414.097L642.989 456.007L527.447 713.2L768.719 604.827Z" fill="#007481"/>
<path d="M583.037 179.169V445.616L504.795 651.288L426.654 445.616V179.562C431.574 178.73 436.604 177.971 441.661 177.312V389.989L476.511 348.783L504.804 413.976L533.162 348.783L568.021 390.017V176.965C573.06 177.623 578.044 178.346 583.037 179.169ZM568.003 442.854V413.189L537.259 376.876L504.795 451.597L472.341 376.876L441.661 413.189V442.854L474.115 528.311H535.521L568.003 442.854Z" fill="#007481"/>
<path d="M348.22 468.697L438.405 669.413L244.447 582.301L237.689 579.301L84.2695 425.854C86.702 421.291 89.2259 416.728 91.8504 412.238L208.984 529.335L204.485 475.546L265.928 499.798L270.619 501.636L268.095 495.143L244.529 435.484L298.355 439.964L169.79 311.418C173.338 307.925 176.941 304.441 180.59 301.012L310.581 431.003L348.22 468.697ZM373.13 560.774L335.72 477.348L314.751 456.388L291.771 454.468L267.354 452.438L277.167 477.421L297.248 528.247L260.231 513.661L221.439 498.353L225.38 545.759L246.322 566.718L329.776 604.193L373.13 560.774Z" fill="#007481"/>
</svg>
