<svg width="3169" height="1045" viewBox="0 0 3169 1045" fill="none" xmlns="http://www.w3.org/2000/svg">
<path d="M926.965 424.263L771.964 579.292L767.538 581.267L571.221 669.412L661.405 468.697L700.361 429.731L830.215 299.887C833.855 303.252 837.503 306.718 841.079 310.257L711.317 439.955L765.105 435.474L742.692 492.326L739.025 501.636L745.783 498.965L805.15 475.546L800.687 529.335L919.32 410.711C921.972 415.155 924.505 419.681 926.965 424.263ZM784.282 545.749L788.214 498.344L751.526 512.801L712.441 528.237L733.447 474.906L742.344 452.428L720.159 454.266L694.92 456.379L673.952 477.338L636.468 560.765L679.886 604.175L763.304 566.7L765.398 564.606L784.282 545.749Z" fill="#007481"/>
<path d="M768.719 604.823C768.719 605.372 768.719 605.957 768.719 606.515C768.719 751.567 651.101 869.195 506.039 869.195C360.95 869.195 243.359 751.576 243.359 606.515V605.93L482.208 713.196L366.666 456.003L325.945 415.273C348.715 393.811 375.298 376.399 404.671 364.109V449.629L504.795 713.196L604.993 449.629V363.094C634.722 375.201 661.763 392.594 684.899 414.093L642.989 456.003L527.447 713.196L768.719 604.823Z" fill="#007481"/>
<path d="M583.037 179.169V445.616L504.795 651.288L426.654 445.616V179.562C431.574 178.73 436.604 177.971 441.661 177.312V389.989L476.511 348.783L504.804 413.976L533.162 348.783L568.021 390.017V176.965C573.06 177.623 578.044 178.346 583.037 179.169ZM568.003 442.854V413.189L537.259 376.876L504.795 451.597L472.341 376.876L441.661 413.189V442.854L474.115 528.311H535.521L568.003 442.854Z" fill="#007481"/>
<path d="M348.22 468.697L438.405 669.413L244.447 582.301L237.689 579.301L84.2695 425.854C86.702 421.291 89.2259 416.728 91.8504 412.238L208.984 529.335L204.485 475.546L265.928 499.798L270.619 501.636L268.095 495.143L244.529 435.484L298.355 439.964L169.79 311.418C173.338 307.925 176.941 304.441 180.59 301.012L310.581 431.003L348.22 468.697ZM373.13 560.774L335.72 477.348L314.751 456.388L291.771 454.468L267.354 452.438L277.167 477.421L297.248 528.247L260.231 513.661L221.439 498.353L225.38 545.759L246.322 566.718L329.776 604.193L373.13 560.774Z" fill="#007481"/>
<path d="M1120.79 84.2695H1095.51V960.674H1120.79V84.2695Z" fill="#007481"/>
<path d="M1260.18 610.185H1313.03V623.622H1247.19V303.371H1260.18V610.185ZM1389.1 509.407C1361.33 509.407 1338.49 531.802 1338.49 560.02C1338.49 587.79 1361.33 610.185 1389.1 610.185C1416.87 610.185 1439.71 587.79 1439.71 560.02C1439.71 531.802 1416.87 509.407 1389.1 509.407ZM1389.1 496.417C1424.03 496.417 1452.7 524.635 1452.7 560.02C1452.7 594.956 1424.03 623.622 1389.1 623.622C1353.71 623.622 1325.5 594.956 1325.5 560.02C1325.5 524.635 1353.71 496.417 1389.1 496.417ZM1422.24 460.585L1360.88 480.293L1356.85 467.752L1418.21 448.044L1422.24 460.585ZM1579.38 496.417H1592.37V560.02C1592.37 585.102 1577.59 606.602 1556.98 616.903C1562.81 620.039 1568.63 624.07 1573.56 628.997C1598.64 653.632 1598.64 693.943 1573.56 719.025C1548.92 743.66 1508.61 743.66 1483.53 719.025L1492.93 709.619C1512.64 729.327 1544.89 729.327 1564.6 709.619C1584.31 689.912 1584.31 658.111 1564.6 638.403C1544.89 618.695 1512.64 618.695 1492.93 638.403L1483.53 628.997C1488.9 624.07 1494.73 620.039 1500.55 616.903C1479.5 606.602 1465.16 584.654 1465.16 560.02C1465.16 524.635 1493.38 496.417 1528.77 496.417C1549.37 496.417 1567.73 505.823 1579.38 521.052V496.417ZM1528.77 610.185C1556.54 610.185 1579.38 587.79 1579.38 560.02C1579.38 531.802 1556.54 509.407 1528.77 509.407C1501 509.407 1478.15 531.802 1478.15 560.02C1478.15 587.79 1501 610.185 1528.77 610.185ZM1611.55 623.622V496.417H1624.54V623.622H1611.55ZM1617.82 444.461C1625.43 444.461 1631.26 450.283 1631.26 457.45C1631.26 464.616 1625.43 470.439 1617.82 470.439C1610.65 470.439 1604.83 464.616 1604.83 457.45C1604.83 450.283 1610.65 444.461 1617.82 444.461ZM1743.6 595.404L1752.56 604.81C1727.93 629.445 1687.61 629.445 1662.53 604.81C1637.9 580.175 1637.9 539.864 1662.53 514.781C1687.61 490.147 1727.93 490.147 1752.56 514.781L1743.6 524.187C1723.89 504.48 1691.65 504.48 1671.94 524.187C1652.23 543.895 1652.23 575.696 1671.94 595.404C1691.65 615.112 1723.89 615.112 1743.6 595.404ZM1870.28 496.417H1883.27V623.622H1870.28V598.539C1858.64 613.768 1840.27 623.622 1819.67 623.622C1784.28 623.622 1756.07 594.956 1756.07 560.02C1756.07 524.635 1784.28 496.417 1819.67 496.417C1840.27 496.417 1858.64 505.823 1870.28 521.052V496.417ZM1819.67 610.185C1847.44 610.185 1870.28 587.79 1870.28 560.02C1870.28 531.802 1847.44 509.407 1819.67 509.407C1791.9 509.407 1769.05 531.802 1769.05 560.02C1769.05 587.79 1791.9 610.185 1819.67 610.185ZM1917.23 624.966V611.977C1929.33 611.977 1938.73 602.571 1938.73 590.477C1938.73 577.488 1928.88 568.082 1918.13 557.78C1906.93 547.031 1895.73 536.281 1895.73 521.052C1895.73 506.271 1907.38 494.626 1922.16 494.626V507.615C1914.55 507.615 1908.72 513.438 1908.72 521.052C1908.72 530.906 1917.68 539.416 1927.09 548.374C1938.73 559.572 1951.72 572.113 1951.72 590.477C1951.72 609.737 1936.49 624.966 1917.23 624.966ZM2091.76 409.524C2137.44 422.513 2170.59 464.616 2170.59 514.334C2170.59 574.801 2121.77 623.622 2061.3 623.622H2048.31V303.371H2061.3C2093.1 303.371 2118.63 328.902 2118.63 360.703C2118.63 381.306 2107.88 399.222 2091.76 409.524ZM2061.3 316.36V405.045C2085.94 405.045 2105.64 385.337 2105.64 360.703C2105.64 336.068 2085.94 316.36 2061.3 316.36ZM2061.3 610.633C2114.6 610.633 2157.6 567.186 2157.6 514.334C2157.6 461.033 2114.6 418.034 2061.3 418.034V610.633ZM2246.65 496.417V509.407C2218.88 509.407 2196.04 531.802 2196.04 560.02V623.622H2183.05V496.417H2196.04V521.052C2207.69 505.823 2226.05 496.417 2246.65 496.417ZM2355.42 496.417H2368.41V623.622H2355.42V598.539C2343.77 613.768 2325.41 623.622 2304.8 623.622C2269.42 623.622 2241.2 594.956 2241.2 560.02C2241.2 524.635 2269.42 496.417 2304.8 496.417C2325.41 496.417 2343.77 505.823 2355.42 521.052V496.417ZM2304.8 610.185C2332.57 610.185 2355.42 587.79 2355.42 560.02C2355.42 531.802 2332.57 509.407 2304.8 509.407C2277.03 509.407 2254.19 531.802 2254.19 560.02C2254.19 587.79 2277.03 610.185 2304.8 610.185ZM2402.37 624.966V611.977C2414.46 611.977 2423.87 602.571 2423.87 590.477C2423.87 577.488 2414.01 568.082 2403.26 557.78C2392.07 547.031 2380.87 536.281 2380.87 521.052C2380.87 506.271 2392.51 494.626 2407.29 494.626V507.615C2399.68 507.615 2393.86 513.438 2393.86 521.052C2393.86 530.906 2402.82 539.416 2412.22 548.374C2423.87 559.572 2436.86 572.113 2436.86 590.477C2436.86 609.737 2421.63 624.966 2402.37 624.966ZM2456.04 623.622V496.417H2469.03V623.622H2456.04ZM2462.31 444.461C2469.92 444.461 2475.75 450.283 2475.75 457.45C2475.75 464.616 2469.92 470.439 2462.31 470.439C2455.14 470.439 2449.32 464.616 2449.32 457.45C2449.32 450.283 2455.14 444.461 2462.31 444.461ZM2488.21 623.622V303.371H2501.2V623.622H2488.21ZM2546.81 599.883C2566.51 615.112 2595.18 613.768 2613.54 595.404L2622.5 604.81C2597.87 629.445 2557.56 629.445 2532.47 604.81C2507.84 580.175 2507.84 539.864 2532.47 514.781C2555.76 491.491 2592.94 490.147 2617.57 510.302H2618.02C2622.5 514.781 2622.5 514.781 2627.43 519.261L2546.81 599.883ZM2541.88 524.187C2523.96 542.104 2522.17 570.769 2537.4 590.477L2608.62 519.708C2588.91 504.48 2560.24 505.823 2541.88 524.187ZM2646.61 623.622V496.417H2659.6V623.622H2646.61ZM2652.88 444.461C2660.49 444.461 2666.32 450.283 2666.32 457.45C2666.32 464.616 2660.49 470.439 2652.88 470.439C2645.71 470.439 2639.89 464.616 2639.89 457.45C2639.89 450.283 2645.71 444.461 2652.88 444.461ZM2742.38 496.417V509.407C2714.61 509.407 2691.77 531.802 2691.77 560.02V623.622H2678.78V496.417H2691.77V521.052C2703.41 505.823 2721.78 496.417 2742.38 496.417ZM2851.14 496.417H2864.13V623.622H2851.14V598.539C2839.5 613.768 2821.13 623.622 2800.53 623.622C2765.15 623.622 2736.93 594.956 2736.93 560.02C2736.93 524.635 2765.15 496.417 2800.53 496.417C2821.13 496.417 2839.5 505.823 2851.14 521.052V496.417ZM2800.53 610.185C2828.3 610.185 2851.14 587.79 2851.14 560.02C2851.14 531.802 2828.3 509.407 2800.53 509.407C2772.76 509.407 2749.92 531.802 2749.92 560.02C2749.92 587.79 2772.76 610.185 2800.53 610.185ZM2898.1 624.966V611.977C2910.19 611.977 2919.6 602.571 2919.6 590.477C2919.6 577.488 2909.74 568.082 2898.99 557.78C2887.79 547.031 2876.6 536.281 2876.6 521.052C2876.6 506.271 2888.24 494.626 2903.02 494.626V507.615C2895.41 507.615 2889.59 513.438 2889.59 521.052C2889.59 530.906 2898.54 539.416 2907.95 548.374C2919.6 559.572 2932.58 572.113 2932.58 590.477C2932.58 609.737 2917.36 624.966 2898.1 624.966Z" fill="#007481"/>
</svg>
