<svg width="1024" height="1024" viewBox="0 0 1024 1024" fill="none" xmlns="http://www.w3.org/2000/svg">
<path d="M925.555 415.326L773.522 567.24L769.181 569.175L576.625 655.549L665.082 458.867L703.292 420.685L830.658 293.449C834.228 296.747 837.807 300.143 841.314 303.611L714.037 430.703L766.795 426.312L744.811 482.022L741.214 491.144L747.843 488.527L806.073 465.579L801.695 518.286L918.056 402.046C920.657 406.401 923.142 410.837 925.555 415.326ZM785.604 534.371L789.461 487.918L753.476 502.085L715.14 517.211L735.743 464.951L744.47 442.925L722.71 444.727L697.955 446.797L677.388 467.335L640.622 549.085L683.209 591.622L765.028 554.901L767.082 552.848L785.604 534.371Z" fill="#007481"/>
<path d="M770.338 592.262C770.338 592.8 770.338 593.373 770.338 593.92C770.338 736.057 654.973 851.321 512.691 851.321C370.381 851.321 255.043 736.066 255.043 593.92V593.347L489.316 698.458L375.987 446.433L336.046 406.521C358.38 385.49 384.454 368.429 413.264 356.385V440.187L511.471 698.458L609.749 440.187V355.391C638.909 367.255 665.431 384.298 688.124 405.365L647.017 446.433L533.688 698.458L770.338 592.262Z" fill="#007481"/>
<path d="M588.213 175.16V436.252L511.47 637.791L434.826 436.252V175.545C439.652 174.729 444.585 173.986 449.545 173.341V381.743L483.728 341.366L511.479 405.248L539.293 341.366L573.485 381.77V173C578.427 173.645 583.315 174.353 588.213 175.16ZM573.467 433.546V404.477L543.312 368.894L511.47 442.113L479.638 368.894L449.545 404.477V433.546L481.378 517.286H541.608L573.467 433.546Z" fill="#007481"/>
<path d="M357.894 458.866L446.351 655.548L256.109 570.187L249.481 567.248L99 416.885C101.386 412.413 103.861 407.942 106.436 403.542L221.325 518.286L216.912 465.578L277.178 489.342L281.78 491.143L279.304 484.781L256.19 426.32L308.984 430.711L182.882 304.748C186.362 301.325 189.896 297.911 193.475 294.551L320.976 421.93L357.894 458.866ZM382.327 549.093L345.633 467.343L325.066 446.805L302.526 444.923L278.577 442.934L288.202 467.415L307.899 517.219L271.59 502.927L233.542 487.926L237.408 534.38L257.948 554.918L339.803 591.639L382.327 549.093Z" fill="#007481"/>
</svg>
